<svg xmlns="http://www.w3.org/2000/svg" width="128.308" height="109.702" viewBox="0 0 128.308 109.702">
  <g id="Group_1244" data-name="Group 1244" transform="translate(-834.308 -3057.229)">
    <path id="Path_1370" data-name="Path 1370" d="M74.5,83.253c4.4-.336,8.889-.692,12.991-2.33,7.663-3.064,13.085-10.441,15.157-18.432s1.126-16.508-1.181-24.432c-2.064-7.092-5.281-13.983-10.34-19.365s-12.115-9.134-19.5-9.184c-5.013-.034-9.983,1.595-14.969,1.084-8.048-.825-14.508-6.969-22.212-9.438A25.647,25.647,0,0,0,10.67,5.772C3.609,11.647.247,21.1.015,30.284S2.338,48.489,5.4,57.149C9.04,67.47,14.213,78.371,24.1,83.056c7.159,3.392,15.476,2.862,23.375,2.258Z" transform="matrix(-0.966, -0.259, 0.259, -0.966, 940.419, 3166.93)" fill="#f1f6f9"/>
    <g id="_101-pie-chart" data-name="101-pie-chart" transform="translate(834.308 3103)">
      <g id="Group_1237" data-name="Group 1237" transform="translate(0 5.304)">
        <g id="Group_1236" data-name="Group 1236">
          <path id="Path_1444" data-name="Path 1444" d="M30.592,68.88V40.846H29.313A29.313,29.313,0,1,0,58.625,70.159V68.88H30.592ZM29.313,96.915a26.756,26.756,0,0,1-1.279-53.482v28h28A26.789,26.789,0,0,1,29.313,96.915Z" transform="translate(0 -40.846)" fill="#5d78ff"/>
        </g>
      </g>
      <g id="Group_1239" data-name="Group 1239" transform="translate(33.339)">
        <g id="Group_1238" data-name="Group 1238">
          <path id="Path_1445" data-name="Path 1445" d="M258.01,0h-1.279V30.592h30.592V29.313A29.346,29.346,0,0,0,258.01,0Zm1.279,28.034V2.587a26.794,26.794,0,0,1,25.447,25.447H259.288Z" transform="translate(-256.731)" fill="#5d78ff"/>
        </g>
      </g>
    </g>
  </g>
</svg>
