<svg xmlns="http://www.w3.org/2000/svg" width="126.616" height="109.702" viewBox="0 0 126.616 109.702">
  <g id="Group_1245" data-name="Group 1245" transform="translate(-1256 -3057.229)">
    <path id="Path_1372" data-name="Path 1372" d="M74.5,83.253c4.4-.336,8.889-.692,12.991-2.33,7.663-3.064,13.085-10.441,15.157-18.432s1.126-16.508-1.181-24.432c-2.064-7.092-5.281-13.983-10.34-19.365s-12.115-9.134-19.5-9.184c-5.013-.034-9.983,1.595-14.969,1.084-8.048-.825-14.508-6.969-22.212-9.438A25.647,25.647,0,0,0,10.67,5.772C3.609,11.647.247,21.1.015,30.284S2.338,48.489,5.4,57.149C9.04,67.47,14.213,78.371,24.1,83.056c7.159,3.392,15.476,2.862,23.375,2.258Z" transform="matrix(-0.966, -0.259, 0.259, -0.966, 1360.419, 3166.93)" fill="#f1f6f9"/>
    <g id="Group_1221" data-name="Group 1221" transform="translate(1256 3097.644)">
      <g id="Group_1216" data-name="Group 1216" transform="translate(0 5.356)">
        <g id="Group_1215" data-name="Group 1215" transform="translate(0 0)">
          <path id="Path_1438" data-name="Path 1438" d="M32.656,5.356,0,24.158l32.656,18.8,32.657-18.8ZM5.093,24.158,32.656,8.288,60.22,24.158,32.656,40.028Z" transform="translate(0 -5.356)" fill="#5d78ff"/>
        </g>
      </g>
      <g id="Group_1218" data-name="Group 1218" transform="translate(1.912 36.22)">
        <g id="Group_1217" data-name="Group 1217">
          <path id="Path_1439" data-name="Path 1439" d="M75.037,244.49,45.56,261.461,16.085,244.49l-1.268,2.2,30.743,17.7,30.745-17.7Z" transform="translate(-14.817 -244.49)" fill="#5d78ff"/>
        </g>
      </g>
      <g id="Group_1220" data-name="Group 1220" transform="translate(1.912 49.383)">
        <g id="Group_1219" data-name="Group 1219">
          <path id="Path_1440" data-name="Path 1440" d="M75.037,346.481,45.56,363.452,16.085,346.481l-1.268,2.2,30.743,17.7,30.745-17.7Z" transform="translate(-14.817 -346.481)" fill="#5d78ff"/>
        </g>
      </g>
    </g>
  </g>
</svg>
