<svg xmlns="http://www.w3.org/2000/svg" width="126.616" height="109.702" viewBox="0 0 126.616 109.702">
  <g id="Group_1246" data-name="Group 1246" transform="translate(-1676 -3057.229)">
    <path id="Path_1371" data-name="Path 1371" d="M74.5,83.253c4.4-.336,8.889-.692,12.991-2.33,7.663-3.064,13.085-10.441,15.157-18.432s1.126-16.508-1.181-24.432c-2.064-7.092-5.281-13.983-10.34-19.365s-12.115-9.134-19.5-9.184c-5.013-.034-9.983,1.595-14.969,1.084-8.048-.825-14.508-6.969-22.212-9.438A25.647,25.647,0,0,0,10.67,5.772C3.609,11.647.247,21.1.015,30.284S2.338,48.489,5.4,57.149C9.04,67.47,14.213,78.371,24.1,83.056c7.159,3.392,15.476,2.862,23.375,2.258Z" transform="matrix(-0.966, -0.259, 0.259, -0.966, 1780.419, 3166.93)" fill="#f1f6f9"/>
    <g id="_101-hierarchical-structure_1_" data-name="101-hierarchical-structure (1)" transform="translate(1671.596 3103)">
      <g id="Group_1235" data-name="Group 1235" transform="translate(4.404)">
        <path id="Path_1442" data-name="Path 1442" d="M60.4,47.8V39.376H37.076V28.721a14.392,14.392,0,1,0-2.557,0V39.376H11.19V47.8H4.4V63.93h16.13V47.8H13.748V41.933H34.519V47.8H27.732V63.93h16.13V47.8H37.076V41.933H57.847V47.8H51.06V63.93H67.19V47.8ZM17.977,50.357V61.373H6.961V50.357Zm23.328,0V61.373H30.289V50.357ZM35.8,26.229A11.836,11.836,0,1,1,47.633,14.393,11.849,11.849,0,0,1,35.8,26.229ZM64.633,61.373H53.618V50.357H64.633Z" transform="translate(-4.404)" fill="#5d78ff"/>
      </g>
    </g>
  </g>
</svg>
